<?xml version="1.0" encoding="UTF-8"?>
<svg width="64" height="64" viewBox="0 0 64 64" xmlns="http://www.w3.org/2000/svg">
  <!-- Transparent background - no fill -->
  
  <!-- Earth representation -->
  <circle cx="32" cy="32" r="26" fill="#1976D2" opacity="0.9"/>
  <circle cx="32" cy="32" r="20" fill="#4CAF50"/>
  <ellipse cx="32" cy="32" rx="20" ry="8" fill="none" stroke="#2E7D32" stroke-width="1.5"/>
  <path d="M32 12 Q38 22 32 32 Q26 42 32 52" fill="none" stroke="#2E7D32" stroke-width="1.5"/>
  
  <!-- Continents/Water -->
  <path d="M20 25 Q25 20 30 25 Q35 22 38 28" fill="#2196F3" stroke="none"/>
  <path d="M22 35 Q28 38 35 32 Q40 35 42 40" fill="#2196F3" stroke="none"/>
  
  <!-- Play button overlay -->
  <polygon points="28,22 28,42 44,32" fill="white" opacity="0.95"/>
  
  <!-- Clock arc for timelapse -->
  <path d="M32 4 A28 28 0 0 1 60 32" fill="none" stroke="#FFC107" stroke-width="4" stroke-linecap="round"/>
  <circle cx="60" cy="32" r="4" fill="#FFC107"/>
</svg>
